<?xml version="1.0" encoding="UTF-8"?><svg id="Layer_1" xmlns="http://www.w3.org/2000/svg" viewBox="0 0 700.98 700.98"><path d="M560.47,363.81l-71.02,104.99h35.51c1.24,28.03-9.98,54.57-32.95,70.89-50.91,36.15-119.28,2.13-123.8-58.89l.03-278.73c.49-2.31,3.44-2.65,5.34-3.92,29.88-20,32.36-61.97.3-80.47-50.41-29.07-100.86,44.08-46.5,80.47,1.91,1.27,4.86,1.61,5.34,3.92l.03,278.73c-4.52,61.02-72.89,95.04-123.8,58.89-22.97-16.31-34.19-42.85-32.95-70.89h35.51l-71.02-104.99-.04,114.68c2.55,75.09,73.98,128.16,146.88,106.67,25.08-7.39,48.58-24.99,62.31-47.15l1.59-.48c14.74,24.89,42.14,43.64,70.41,49.65,71.33,15.15,136.06-36.52,138.86-108.68l-.04-114.68ZM353.8,168.32c-16.34,3.7-18.98-19.28-5.04-21.28,14.21-2.05,16.75,18.63,5.04,21.28Z"/></svg>